<svg xmlns="http://www.w3.org/2000/svg" viewBox="0 0 121.84 120.41"><defs><style>.cls-1{fill:#18193e;}.cls-2{fill:#498fcb;}.cls-3{fill:#101138;}.cls-4{fill:#13143a;}.cls-5{fill:#111239;}.cls-6{fill:#14153b;}.cls-7{fill:#111238;}.cls-8{fill:#fbfafb;}.cls-9{fill:#f9f9f9;}.cls-10{fill:#fcfcfc;}.cls-11{fill:#f8f8f9;}.cls-12{fill:#fafafb;}.cls-13{fill:#fafafa;}.cls-14{fill:#f9f9fa;}.cls-15{fill:#f7f7f8;}.cls-16{fill:#f6f6f7;}.cls-17{fill:#f3f2f4;}.cls-18{fill:#f4f4f5;}.cls-19{fill:#f0f0f2;}.cls-20{fill:#ededf0;}.cls-21{fill:#e6e5e9;}.cls-22{fill:#f1f1f3;}.cls-23{fill:#fefefe;}.cls-24{fill:#17183d;}</style></defs><g id="Layer_2" data-name="Layer 2"><g id="Layer_1-2" data-name="Layer 1"><path class="cls-1" d="M77.33,68.8a23.62,23.62,0,0,0,5.29-3.37,20.42,20.42,0,0,0,1.62-1.33.6.6,0,0,1,.93,0c.78.71,1.54,1.44,2.3,2.17.16.15.29.32.41.45l4.72-3.82,6,6.81c-.55.37-1.07.68-1.56,1.06L85.41,79.84l-.66.53a1.79,1.79,0,0,1-3-.55c-.45-.78-.86-1.58-1.31-2.4A32,32,0,0,1,66,80.18c0,.06,0,.11,0,.13a1.56,1.56,0,0,1,.24,1.84,1.67,1.67,0,0,1-1.71.85c-2.44,0-4.88,0-7.31,0-1.89,0-2.56-1.11-1.61-2.82A32,32,0,0,1,41,77.42l-1.22,2.25c-.8,1.42-1.87,1.63-3.14.62Q31.22,76,25.79,71.7c-.91-.71-1.88-1.34-2.89-2.06l5.94-6.74c.82.61,1.64,1.18,2.43,1.81s1.51,1.31,2.3,2c.46-.51.91-1,1.41-1.51A16.65,16.65,0,0,1,36.34,64c.32-.26.59-.22.93.07a31.45,31.45,0,0,0,6.31,4.43l.49.22a1.4,1.4,0,0,0,.31,0,8.08,8.08,0,0,0-1.14-2,4.86,4.86,0,0,1-1.69-3.57A1.37,1.37,0,0,0,41,62.08a6.93,6.93,0,0,1-2.79-4.91A1.09,1.09,0,0,0,38,56.6a7.76,7.76,0,0,1-2.21-5.83,1,1,0,0,0-.23-.62,9.23,9.23,0,0,1-2.22-6,1.74,1.74,0,0,0-.2-.78,8.19,8.19,0,0,1-1.63-5.28,1,1,0,0,0-.21-.53,8.51,8.51,0,0,1-1.62-5.11,1.37,1.37,0,0,0-.2-.67,9,9,0,0,1-1.3-5.5,1,1,0,0,0-.16-.61A7.11,7.11,0,0,1,26.77,21a1.11,1.11,0,0,0-.22-.65,8.87,8.87,0,0,1-1.42-6.05.92.92,0,0,0-.15-.6,16.39,16.39,0,0,1-2.67-7.36,3.37,3.37,0,0,0-.31-1A10.65,10.65,0,0,1,20.77.74,3,3,0,0,1,21,0a2.06,2.06,0,0,1,.71.3C29.85,7.88,38,15.48,46.11,23a7.18,7.18,0,0,1,2.34,6.8c-.21,1.38-.44,2.76-.57,4.15a13.43,13.43,0,0,0,2.87,9.7c.11.14.21.29.31.44l.09,0,.75-.53a6.76,6.76,0,0,1,.31.93,5.14,5.14,0,0,1,0,1,7,7,0,0,0,0,.92c.36-.34.81-.48.89-1.17a4.34,4.34,0,0,1,2.62-3.61.76.76,0,0,0,.49-.76,5,5,0,0,0-1.08-3.69,14.23,14.23,0,0,1-2.49-5.53c0-.14-.06-.28-.09-.41a1,1,0,0,1,.08-.23l3.54.9c0-.17,0-.36,0-.55,0-2.22,0-4.44,0-6.66a1.09,1.09,0,0,0-.42-.91,15.21,15.21,0,0,1-4.89-9.68,3.78,3.78,0,0,1,0-.48A16.62,16.62,0,0,1,56.16,16c0-.24,0-.43,0-.61,0-2.08,0-4.16,0-6.23a1.55,1.55,0,0,1,.17-.74q2.2-3.94,4.45-7.87A2.89,2.89,0,0,1,61,.27L62.56,3c1,1.75,2,3.5,3,5.27a2.3,2.3,0,0,1,.28,1.06c0,4.88,0,9.75,0,14.63v.74c.83-.94,1.55-1.86,2.37-2.68s1.75-1.54,2.63-2.31l.24.09c.14,1.22.35,2.43.41,3.65A16.55,16.55,0,0,1,66.36,36.5a1.57,1.57,0,0,0-.54,1.3c0,1,0,2,0,3a.64.64,0,0,0,.45.72,4.66,4.66,0,0,1,2.82,3.87c0,.36.49.65.88.91,0-.72,0-1.45,0-2.17s.18-.66.77-.39a13.83,13.83,0,0,0,2.92-7.16,23.6,23.6,0,0,0-.55-6.49,7.42,7.42,0,0,1,2.43-7.17C83.68,15.42,91.73,7.85,99.82.32a2.3,2.3,0,0,1,.71-.32,2.53,2.53,0,0,1,.25.73,10.62,10.62,0,0,1-1.15,4.42,6.89,6.89,0,0,0-.42,1.54,17.41,17.41,0,0,1-2.55,6.85,1.41,1.41,0,0,0-.22.86A8.94,8.94,0,0,1,95,20.23a1.82,1.82,0,0,0-.23,1,7.39,7.39,0,0,1-1.16,4.33,1.79,1.79,0,0,0-.21.93,9.1,9.1,0,0,1-1.28,5.22,1.69,1.69,0,0,0-.24.78,8.6,8.6,0,0,1-1.57,5,1.14,1.14,0,0,0-.26.64,8,8,0,0,1-1.49,5,2.56,2.56,0,0,0-.33,1.16,9.36,9.36,0,0,1-2.21,5.82,1.13,1.13,0,0,0-.24.74,7.86,7.86,0,0,1-2.2,5.72,1.19,1.19,0,0,0-.29.62,7,7,0,0,1-2.84,4.94,1.09,1.09,0,0,0-.48,1,4.74,4.74,0,0,1-1.74,3.73c-.34.28-.46.81-.69,1.22l-.36.62-.08.13ZM53.1,15.31l-.14,0,.07.12,3,3.69a6.76,6.76,0,0,0,.12-1.71.61.61,0,0,0-.25-.42C55,16.38,54.05,15.85,53.1,15.31ZM45,68v-.08H45L45,68a4.63,4.63,0,0,0,.52.71c1.9,1.82,4.29,2,6.77,2,0-.27,0-.45-.05-.62s0-.39-.07-.58c-.18,0-.32-.06-.45-.07A20.6,20.6,0,0,1,45.22,68,.85.85,0,0,0,45,68Zm31.63,0a1.61,1.61,0,0,0-.38,0c-1.5.4-3,.84-4.49,1.2a24.26,24.26,0,0,1-2.42.32l-.11,1.1A8.7,8.7,0,0,0,76.62,68l-.05-.09,0,0Zm-37-37.92L39.57,30l0,.11c.13,2.47,2.08,4.45,4,4l-.15-2.64a4.53,4.53,0,0,1-1-.19C41.44,31,40.54,30.53,39.63,30.11Zm14.66,3.2-.12-.1v.2a14.5,14.5,0,0,0,3.07,5,11.69,11.69,0,0,0,6.31,3.74h.19l-.1-.1c-1-.92-1.92-1.86-2.9-2.77Zm.55-.79v-.09l-.07,0,.08,0a1.19,1.19,0,0,0,.16.23l9.17,8.59a2.53,2.53,0,0,0,.34.21,1,1,0,0,0,0-.23,1.87,1.87,0,0,0-.13-.4,14.41,14.41,0,0,0-9.15-8.35A1.6,1.6,0,0,0,54.84,32.52ZM32.46,39.29l-.1,0,0,0,.06-.08a2.28,2.28,0,0,0,0,.74,10.39,10.39,0,0,0,.75,1.82,18,18,0,0,0,9.1,7.71c.84.34,1.73.54,2.56.79l-1.22-3.65C39,45.77,35.44,43,32.46,39.29Zm6.82,18.38-.06-.06,0,0a.18.18,0,0,0,.05.07,4.77,4.77,0,0,0,1.42,2.89,9.89,9.89,0,0,0,4.65,2.94c1.45.37,2.93.61,4.4.86a17.32,17.32,0,0,0,2,.15c.12-.56-.13-.7-.5-.92a13.11,13.11,0,0,1-2-1.56c-.38-.35-.26-.6.27-.63s1.25,0,2,0a2.41,2.41,0,0,0-.54-.35c-.39-.1-.8-.14-1.2-.22a4.18,4.18,0,0,0-.68-.16,17.4,17.4,0,0,1-9.34-2.79C39.6,57.82,39.43,57.75,39.28,57.67ZM80.54,39.86a6.45,6.45,0,0,0,.62-.21,25.33,25.33,0,0,0,9.64-7.51,8.25,8.25,0,0,0,1.65-3.62,10.74,10.74,0,0,0,.13-1.14c-.1,0-.13,0-.14,0-.21.24-.41.49-.61.73a23.2,23.2,0,0,1-9.62,6.72,1.06,1.06,0,0,0-.57.37c-.35.66-.64,1.35-.94,2a1.7,1.7,0,0,0-.08.46c-.06.69-.12,1.38-.19,2.07l0,.16Zm4.27-16.47a.94.94,0,0,0,.3-.06,29.68,29.68,0,0,0,10.27-9.56,4.21,4.21,0,0,1,.35-.48A13.62,13.62,0,0,0,98.05,8l0-.14L98,7.91a.64.64,0,0,0-.13.1A46.47,46.47,0,0,1,86.21,18.24a1.65,1.65,0,0,0-1,1.75,18.24,18.24,0,0,1-.41,3.41l-.07.06h0ZM23.56,7.92l-.09-.09,0,.16a18,18,0,0,0,2.57,5.68,31.39,31.39,0,0,0,10.18,9.55l.54.29a5.9,5.9,0,0,1-.17-.66c-.11-1.14-.26-2.29-.29-3.44a.81.81,0,0,0-.41-.8,49.73,49.73,0,0,1-8.66-6.7C26,10.64,24.79,9.25,23.56,7.92ZM65.49,79.23a26.42,26.42,0,0,0,7.41-.38,35.29,35.29,0,0,0,15.42-7.21,8.76,8.76,0,0,1,1.29-.7c-.34-1.36-3.58-5.44-5-6.1a24.4,24.4,0,0,1-19.17,6.89ZM31.86,71a6.05,6.05,0,0,1,1.07.46c.54.34,1,.74,1.56,1.12A32.63,32.63,0,0,0,51.2,79.2c1.55.15,3.13,0,4.79,0V71.73A24.41,24.41,0,0,1,36.8,64.81,17.71,17.71,0,0,0,31.86,71ZM64.93,39.63a2.83,2.83,0,0,0,0-.29q0-15,0-30a1.67,1.67,0,0,0-.22-.78c-1-1.75-2-3.48-2.95-5.21A3.88,3.88,0,0,0,61.5,3a.36.36,0,0,0,0,.11q0,15.84,0,31.69a.69.69,0,0,0,.15.48A20.19,20.19,0,0,1,64.93,39.63ZM61.17,47,60,49.07c-.33.54-.55,1.29-1,1.57s-1.2.08-1.82.08H54.7c.66,1.15,1.23,2.2,1.86,3.21a.9.9,0,0,1,0,1.08c-.63,1-1.2,2.05-1.85,3.18,1.35,0,2.58,0,3.81,0a.74.74,0,0,1,.75.43c.6,1.09,1.24,2.17,1.9,3.32.64-1.1,1.25-2.1,1.8-3.14A1,1,0,0,1,64,58.18c1.16,0,2.33,0,3.6,0a17.65,17.65,0,0,0-1.23-2.1,2.3,2.3,0,0,1,0-3.26,16.77,16.77,0,0,0,1.24-2.11c-1.36,0-2.6,0-3.83,0a.73.73,0,0,1-.75-.44C62.47,49.21,61.84,48.15,61.17,47Zm-.61-12.77V2.85l-.37.59c-.94,1.66-1.9,3.32-2.82,5a2.26,2.26,0,0,0-.29,1.07c0,3,0,6,0,9,0,4.4,0,8.79,0,13.18a.9.9,0,0,0,.29.68C58.4,33,59.47,33.61,60.56,34.22ZM36.79,15.53a4.88,4.88,0,0,0,1,3.76c.66.72,1.29,1.47,1.9,2.24.85,1,1.73,2.09,2.5,3.21a12,12,0,0,1,2.11,6.81,24.73,24.73,0,0,0,5.09,14.69c.14.18.3.35.48.57.09-.37.17-.66.23-1a2.29,2.29,0,0,0-.34-2A13.25,13.25,0,0,1,47,35.59a50.65,50.65,0,0,1,.63-6,6.23,6.23,0,0,0-2.06-5.88c-1.56-1.38-3-2.84-4.55-4.26Zm48,.08a1.16,1.16,0,0,0-.19.09c-3,2.83-6,5.65-9,8.49a5,5,0,0,0-1.64,3.86,19.66,19.66,0,0,0,.31,3.15c.93,4.71.35,9.09-2.67,13a.55.55,0,0,0-.07.48c.21.5.47,1,.75,1.52A26,26,0,0,0,77.14,33.6c.12-1.19.06-2.4.19-3.59a13.08,13.08,0,0,1,3.12-6.82c1-1.22,2-2.43,3.06-3.6A5,5,0,0,0,84.76,15.61ZM24.31,69.36l13,10.37c.1.07.19.15.29.21a.81.81,0,0,0,1-.15.58.58,0,0,0,.15-.85,11.44,11.44,0,0,0-1.28-1.64,19.22,19.22,0,0,0-5.11-3.51,2.33,2.33,0,0,1-1.16-3.58c.56-.93,1.15-1.86,1.78-2.87L29,64Zm64.15-2c.4.57.74,1,1.05,1.53a14.89,14.89,0,0,1,.86,1.5,2.17,2.17,0,0,1-1.13,3.3,19.43,19.43,0,0,0-5,3.56,10.12,10.12,0,0,0-1.36,1.8.75.75,0,0,0,.07.72,1.44,1.44,0,0,0,.92.13c.2,0,.38-.26.57-.41l11.18-8.83c.53-.41,1.09-.78,1.68-1.2L92.46,64ZM35.92,17.56c0-.77,0-1.55,0-2.32a1,1,0,0,0-.37-.87L22.18,1.92c-.13-.12-.26-.22-.45-.38a2.88,2.88,0,0,0,0,.3c0,.16.05.32.09.47a14.26,14.26,0,0,0,2.64,5.26,47.11,47.11,0,0,0,11.29,9.92A1.22,1.22,0,0,0,35.92,17.56Zm64-16c-.21.1-.25.11-.27.14L85.85,14.51a.64.64,0,0,0-.23.39c0,.88,0,1.76,0,2.68l.34-.19A50.62,50.62,0,0,0,95,10a17.78,17.78,0,0,0,4.42-6.6C99.58,2.83,99.73,2.24,99.93,1.52ZM41.16,40a4.38,4.38,0,0,1-.2-1.08,3.91,3.91,0,0,0-.73-2.67,1.38,1.38,0,0,1-.23-.68c0-.44-.3-.58-.66-.72a22.91,22.91,0,0,1-10-7.21c-.08-.1-.17-.19-.34-.38A8.32,8.32,0,0,0,30.62,32a24.49,24.49,0,0,0,4.62,4.59A21.74,21.74,0,0,0,41.16,40ZM49,54.27c.15-1.3.13-1.27-1.13-1.81a18.26,18.26,0,0,1-1.61-.9,2,2,0,0,0-.58-.25,18.4,18.4,0,0,1-10.85-5.88,5.79,5.79,0,0,1-.47-.61l-.14.13a7.66,7.66,0,0,0,2.07,4.72,17,17,0,0,0,7,4.38c1.13.36,2.3.58,3.46.86-.08-.79-.19-1.43-.21-2.08s.2-.66.61-.31C47.79,53.07,48.39,53.69,49,54.27Zm-12.42-3.1A6.75,6.75,0,0,0,39,56.31a16.48,16.48,0,0,0,6.21,3c.93.23,1.88.34,2.83.51-.36-.84-.68-1.56-1-2.29A1.45,1.45,0,0,1,47,57a1.71,1.71,0,0,1,.56,0c.67.32,1.33.68,2.08,1.07a2.7,2.7,0,0,0-.44-.81,19.08,19.08,0,0,0-1.62-1.17,2,2,0,0,0-.78-.41A18.24,18.24,0,0,1,37,51.49ZM91.05,33.5c-.16,0-.19,0-.2,0l-.21.22a25.48,25.48,0,0,1-10.36,7.21.58.58,0,0,0-.32.35,11.64,11.64,0,0,1-1.52,4.38c.33-.08.54-.12.74-.19a19.69,19.69,0,0,0,11.26-10A11.62,11.62,0,0,0,91.05,33.5Zm-48,12.09a11.46,11.46,0,0,1-1.48-4.27.63.63,0,0,0-.35-.4,25.41,25.41,0,0,1-10.31-7.18,1.62,1.62,0,0,1-.19-.37C30.54,37.45,38.23,45,43.08,45.59ZM27.61,22a6.47,6.47,0,0,0,1.13,3.2,21.79,21.79,0,0,0,10.59,8.63c.16.06.32.1.57.17a2.23,2.23,0,0,0-.15-.71,7.48,7.48,0,0,1-1.14-3.73.64.64,0,0,0-.55-.64,18.15,18.15,0,0,1-6.75-3.5C30,24.4,28.85,23.2,27.61,22Zm54,12c.22-.06.3-.07.37-.1a21.66,21.66,0,0,0,10.23-7.89,19.08,19.08,0,0,0,1.51-2.91A4.78,4.78,0,0,0,94,22a.81.81,0,0,0-.4.28,20.61,20.61,0,0,1-10,6.65.77.77,0,0,0-.67.8,7.19,7.19,0,0,1-1.1,3.57A2.42,2.42,0,0,0,81.64,34.05ZM26,15a7.3,7.3,0,0,0,1.17,4.48A19.87,19.87,0,0,0,37.56,27.9a.67.67,0,0,0,.22,0c-.11-.85-.25-1.67-.3-2.5a.79.79,0,0,0-.45-.74,36,36,0,0,1-6.47-4.5A28.2,28.2,0,0,1,26,15Zm61.4,29.77-.78.79a18.55,18.55,0,0,1-8.86,5.33,10,10,0,0,0-3.48,1.26c-.88.61-1.25,1-1,1.74.45-.36,1-.84,1.6-1.28a2.92,2.92,0,0,1,.68-.27,2.67,2.67,0,0,1,.13.73c0,.53-.11,1-.18,1.61.22,0,.41,0,.6-.06a17.43,17.43,0,0,0,9.28-5A7.84,7.84,0,0,0,87.36,44.81ZM95.6,15.1c-.64.81-1.19,1.54-1.78,2.22a33.65,33.65,0,0,1-9.23,7.34c-.19.11-.46.28-.48.45-.15.94-.23,1.9-.32,2.83,4.16-1,9.58-5.64,11.23-9.62A6.94,6.94,0,0,0,95.6,15.1ZM85,51.22l-.36.25a18.14,18.14,0,0,1-9.44,4.21,1.15,1.15,0,0,0-.52.32c-.49.41-.94.86-1.46,1.23s-.44.24-.41.8A4.56,4.56,0,0,1,75.16,57a5.17,5.17,0,0,1-1.11,2.76h.29a16.59,16.59,0,0,0,8.44-3.59A6.46,6.46,0,0,0,85,51.22Zm-8.27-1h.14c.41-.1.82-.19,1.22-.3a18.13,18.13,0,0,0,9.06-6.28,18.39,18.39,0,0,0,1.83-3.21,4.08,4.08,0,0,0,.25-1.07c-4.77,4.92-6.49,6-11.3,7.28Zm5.68,7.32-.68.4a20.2,20.2,0,0,1-5.43,2.31c-1.54.41-3.19.16-4.67.87h-.06c-.55-.2-.66.25-.8.44.67,0,1.4,0,2.12,0s.63.22.27.67a4.64,4.64,0,0,1-2.94,1.8,1.89,1.89,0,0,0-.47.27l.09.25c1.07-.11,2.14-.18,3.2-.32a12.46,12.46,0,0,0,7.57-3.34A5.92,5.92,0,0,0,82.37,57.57Zm-13,11.05a18.51,18.51,0,0,0,5.38-1,15.06,15.06,0,0,0,3-1.59,3.12,3.12,0,0,0,1.31-2.69c-.95.38-1.82.78-2.72,1.07a22.34,22.34,0,0,1-6.07,1c-.34,0-.65,0-.68.49C69.56,66.78,69.49,67.67,69.42,68.62ZM51.87,65.44c-3.29-.16-6.47-.54-9.43-2.2a3.62,3.62,0,0,0,1.38,2.87,10.27,10.27,0,0,0,4.62,2c1.2.24,2.42.39,3.7.6Zm16.61,3.91H53.08c-.09,1.16.25,1.55,1.35,1.55H67.12C68.23,70.9,68.57,70.51,68.48,69.35ZM65.78,35.6c3.58-3.13,5.87-9.92,4.66-13.29a2.28,2.28,0,0,0-.13.28c-1.44,3.74-2.9,7.47-4.31,11.22A8,8,0,0,0,65.78,35.6Zm-23,6.64A6.87,6.87,0,0,0,48,48c.15-.19.38-.45.57-.43s.4.31.49.53c.29.64.53,1.31.8,2l.48-1a6.19,6.19,0,0,0-.5-1c-1-1.36-2-2.71-3-4.05-.08-.11-.19-.25-.3-.26A7.17,7.17,0,0,1,42.75,42.24Zm36.06,0a7.3,7.3,0,0,1-3.61,1.55,1,1,0,0,0-.62.41c-.74,1-1.47,2-2.13,3.1-.24.38-.22.92-.44,1.33-.31.56.17.84.28,1.25.27-.65.5-1.28.8-1.88s.42-.62.92-.14A6.89,6.89,0,0,0,78.81,42.22ZM53.08,68.57H68.49c-.07-.79-.4-1.08-1.22-1.09H58.11c-1.31,0-2.63,0-4,0C53.45,67.49,53.12,67.83,53.08,68.57Zm3.07,12.26h-.21c0,.33-.12.73,0,1a1.21,1.21,0,0,0,.87.47c2.63,0,5.26,0,7.89,0a.88.88,0,1,0,0-1.74H59a.65.65,0,0,0-.46.17C57.66,81.76,57.07,81.79,56.15,80.83ZM42.47,27.09c-.47-1.42-4.24-6.41-5.32-7C36.92,23.66,39.55,27.14,42.47,27.09Zm36.56,0c3.1-.18,6.11-4.25,5.29-7.14C82.44,22.27,80.27,24.3,79,27.11ZM69.59,22l-.17-.15L66.71,25.1a3.5,3.5,0,0,0-.89,2.74,20.34,20.34,0,0,1,0,2.21v1.33H66Q67.79,26.71,69.59,22Zm13.55,4.06a7.79,7.79,0,0,1-4.23,2,.55.55,0,0,0-.36.32c-.17.7-.31,1.42-.46,2.14A5.16,5.16,0,0,0,83.14,26.07ZM43.45,30.58c-.12-.63-.25-1.22-.34-1.8s-.3-.68-.8-.76a6.79,6.79,0,0,1-1.87-.59,21.5,21.5,0,0,1-2-1.22C38.4,28.3,41,30.65,43.45,30.58ZM78,34.19c2,.31,4-1.72,4-4.18a6.82,6.82,0,0,1-3.81,1.52ZM41.81,38.44c-.1,2.06,2.32,4.52,4.36,4.3-.41-1-.82-2-1.25-3a.63.63,0,0,0-.29-.33C43.68,39.05,42.73,38.74,41.81,38.44Zm33.55,4.34c2.35-.11,4.56-2.39,4.37-4.34l-2.81.94a.42.42,0,0,0-.25.22C76.23,40.65,75.8,41.71,75.36,42.78ZM64.64,78.27H59.89a.43.43,0,0,0-.3.14c-.33.43-.63.88-1,1.39h6Zm-8.52-55.4c.28-1.71.15-2.23-.83-3.39L54,17.92l-1.68-2A12.94,12.94,0,0,0,56.12,22.87Zm21,15.59a4.29,4.29,0,0,0,3.72-4l-3,.88Zm-32.62,0-.73-3.12-3-.87A4.33,4.33,0,0,0,44.46,38.44ZM57,73.15h4.18a.31.31,0,0,0,.25-.11c.34-.45.65-.91,1-1.4H57Zm25.14,5.46c.63-.71,1.18-1.43,1.82-2A22.18,22.18,0,0,1,89,73a7.44,7.44,0,0,0,.92-.67c-.35-.56-.63-.37-1-.13-1.22.87-2.41,1.78-3.67,2.58s-2.62,1.53-4,2.31Zm-42-1.38C37.9,75.8,35.75,74.4,33.6,73c-.4-.26-.75-.59-1.16-.83a1.85,1.85,0,0,0-.68-.07,2.37,2.37,0,0,0,.25.63,1.33,1.33,0,0,0,.5.31,19.15,19.15,0,0,1,6.92,5.45Zm20.08.29h4.44V76.05h-3.2a.51.51,0,0,0-.34.19C60.8,76.64,60.53,77.05,60.2,77.52ZM44.9,47.58a4.89,4.89,0,0,0,2.94,3.87L47.73,49Zm8,19.43c.65-.08,1.22-.21,1.8-.23,1.3,0,2.6,0,3.9,0a3.75,3.75,0,0,0,.45,0c-.68-1.13-1-1.23-2.14-.81a4.44,4.44,0,0,1-3.11,0c-.31-.11-.62-.25-1-.41Zm10.68,4.66-.15-.14a2.63,2.63,0,0,0-.48.46c-1.69,2.4-3.36,4.8-5.06,7.19-.14.2-.44.27-.62.45s-.5.49-.51.74a.54.54,0,0,0,.71.52c.39-.07.54-.34.54-.74a1.4,1.4,0,0,1,.18-.74c1.67-2.41,3.36-4.81,5-7.21C63.32,72,63.43,71.85,63.55,71.67Zm-2.73,2.24H57v1.46c.9,0,1.76,0,2.61,0a.58.58,0,0,0,.39-.21C60.24,74.78,60.5,74.38,60.82,73.91Zm-.72-32-3-2.18v3Zm14.24,9.31a5.47,5.47,0,0,0,2.36-3.62l-2.36,1.19ZM63.13,66.78c1.29,0,2.53,0,3.76,0a16.93,16.93,0,0,1,1.78.22l.07-1A4.76,4.76,0,0,1,65.16,66C64.11,65.5,63.66,65.67,63.13,66.78Zm-1.32,8.56h2.82V73.92C62.86,73.71,62.57,73.85,61.81,75.34ZM60.71,42.5a4.88,4.88,0,0,0-4.19,1.59A4.91,4.91,0,0,0,60.71,42.5ZM65.59,44a4.83,4.83,0,0,0-4.06-1.53A4.32,4.32,0,0,0,65.59,44Zm6,4a3.6,3.6,0,0,0-1.13-3.62A3.61,3.61,0,0,0,71.61,48Zm1,14.1c-1.49-.2-3.18.55-3.58,1.55A4.15,4.15,0,0,0,72.61,62.1Zm-13.38,14h-2.3v1.42C58.26,77.7,58.5,77.55,59.23,76.09Zm8.21-28.72A3.57,3.57,0,0,0,71,48.57,3.6,3.6,0,0,0,67.44,47.37Zm5.13,9.23c0-1.6-.84-3.11-1.86-3.45A4.13,4.13,0,0,0,72.57,56.6ZM57.09,65.31a3.49,3.49,0,0,0-3.86-.13A4.1,4.1,0,0,0,57.09,65.31ZM54.71,47.38a3.64,3.64,0,0,0-3.61,1.18A3.6,3.6,0,0,0,54.71,47.38Zm14.52,12a3.62,3.62,0,0,0-.82,3.71A3.62,3.62,0,0,0,69.23,59.36Zm-4.31,5.42a4.1,4.1,0,0,0,2.14-3.25A3.59,3.59,0,0,0,64.92,64.78ZM48.65,48.3a3.66,3.66,0,0,0,.26,3.88A4,4,0,0,0,48.65,48.3ZM57.84,46A3.63,3.63,0,0,0,54,45.62,4.17,4.17,0,0,0,57.84,46Zm-8,15.9a3.67,3.67,0,0,0,3.61,1.51A4.13,4.13,0,0,0,49.8,61.9Zm16.14-20a3.48,3.48,0,0,0,2.52,2.86A3.84,3.84,0,0,0,65.94,41.94Zm-9.69,0a3.65,3.65,0,0,0-2.53,3A4.06,4.06,0,0,0,56.25,41.93ZM49.5,52.55A4.21,4.21,0,0,0,52.64,50,4.15,4.15,0,0,0,49.5,52.55Zm25.56.59a3.61,3.61,0,0,0-1.74,3.36A3.59,3.59,0,0,0,75.06,53.14Zm-1.83-1a3.68,3.68,0,0,0,.25-3.89A4,4,0,0,0,73.23,52.19Zm-8,13.2a3.68,3.68,0,0,0,3.9-.15A4.07,4.07,0,0,0,65.24,65.39ZM51.83,56.46A3.69,3.69,0,0,0,51,60.29,4.13,4.13,0,0,0,51.83,56.46Zm3.47,4.9a4.13,4.13,0,0,0,2.15,3.26A3.67,3.67,0,0,0,55.3,61.36Zm7.39,5a4.14,4.14,0,0,0,.84-4A4.14,4.14,0,0,0,62.69,66.4Zm10-13.86A4.2,4.2,0,0,0,69.5,50,4.15,4.15,0,0,0,72.65,52.54ZM54,63a3.68,3.68,0,0,0-.88-3.81A4.1,4.1,0,0,0,54,63ZM64.31,46a4.07,4.07,0,0,0,3.88-.38A3.63,3.63,0,0,0,64.31,46ZM47.58,57.57c.41,1.54,1.59,2.77,2.68,2.84A4.12,4.12,0,0,0,47.58,57.57Zm22.78-1.12a3.7,3.7,0,0,0,.85,3.82A4.1,4.1,0,0,0,70.36,56.45ZM59.45,66.38a4.11,4.11,0,0,0-.86-3.94A4.19,4.19,0,0,0,59.45,66.38ZM47,53a4.13,4.13,0,0,0,1.85,3.57A4.18,4.18,0,0,0,47,53Zm2.54,3.52c1.25-.74,2.07-2.39,1.74-3.43A4.09,4.09,0,0,0,49.56,56.54Zm.94-8.42a4.15,4.15,0,0,0,1.18-3.86A4.18,4.18,0,0,0,50.5,48.12ZM71.86,60.5a3.67,3.67,0,0,0,2.62-2.89A4.07,4.07,0,0,0,71.86,60.5Zm-11,6.35h.3c.18-.26.46-.5.51-.78s-.24-.63-.62-.64-.7.22-.66.6S60.68,66.58,60.84,66.85Zm3.81,4.69c-.74.33-.88,1-1.38,1.57h1.38ZM54.38,64.17c-.57-.49-1.15-.06-1.74-.22l.06.78Zm13.35.17,1.2.23c-.08-.2-.11-.43-.2-.45C68.4,64,68,63.83,67.73,64.34Zm-9.93,14h-.86V79l.14.08ZM44.34,68.74l0,0,.08,0,0,0Zm7.84-22.28,0,0s0,0,0,0l.07,0Z"/><path class="cls-2" d="M121.84,88.76v9.67H0V88.76Z"/><path class="cls-3" d="M100.19,109.48h-2v10.9h-4V105.79h9.88v14.58h-3.91Z"/><path class="cls-4" d="M52.42,105.76h3.93v2c0,1.53,0,3.07,0,4.61a1.41,1.41,0,0,1-.35.82,19.94,19.94,0,0,1-1.52,1.53.57.57,0,0,0-.14.77c.75,1.59,1.46,3.19,2.22,4.88-1.29,0-2.52,0-3.74,0-.12,0-.29-.24-.35-.4-.64-1.66-1.26-3.32-1.88-5a.89.89,0,0,0-.3-.43v5.8H46.4c0-.2,0-.38,0-.55,0-2.16,0-4.31,0-6.47a1.46,1.46,0,0,1,.36-.88,20.86,20.86,0,0,1,1.55-1.57.5.5,0,0,0,.11-.72c-.75-1.45-1.47-2.91-2.24-4.45,1.29,0,2.5,0,3.71,0,.14,0,.33.24.4.41.61,1.48,1.2,3,1.8,4.44a1.26,1.26,0,0,0,.34.53Z"/><path class="cls-5" d="M77.68,120.41v-3.72h3.75v-7.22h-5.2v-5.64h3.94v1.89h5.3v10.43a4,4,0,0,1-4.28,4.26Z"/><path class="cls-5" d="M64.84,109.45h-6v-3.67h9.91v14.6H64.84Z"/><path class="cls-6" d="M25.07,120.39h-4V109.46h-4.5v-3.68a3.13,3.13,0,0,1,.44,0h4.68a3.15,3.15,0,0,1,3.36,3.38v11.27Z"/><path class="cls-6" d="M38,120.38h-4V105.77h4Z"/><path class="cls-3" d="M44.29,120.39H40.38V105.77h3.91Z"/><path class="cls-6" d="M28,109.46H26.74v-3.68H32v9.3H28Z"/><path class="cls-7" d="M92.12,115.09H88.18v-5.62h-1.3v-3.68h5.24Z"/><path class="cls-6" d="M62.81,120.38H58.88v-8.61h3.93Z"/><path class="cls-8" d="M65.49,79.23v-7.5a24.4,24.4,0,0,0,19.17-6.89c1.37.66,4.61,4.74,5,6.1a8.76,8.76,0,0,0-1.29.7A35.29,35.29,0,0,1,72.9,78.85,26.42,26.42,0,0,1,65.49,79.23Zm15.29-4.35-1.63-4.16-3,1.17,1.63,4.16,1.23-.5-1.1-2.85.49-.15,1.11,2.82ZM70.28,72.8l.44,1.91,1.62-.33L72.7,76l-1.22.31.31,1.34a14.83,14.83,0,0,0,1.49-.35A1,1,0,0,0,74,76.2c-.17-1.17-.44-2.32-.67-3.5L71.76,73l-.23-.51Zm6.14,2-.82-2.73-1.79.53c.38.43,0,1.22.92,1.28l.42,1.3Z"/><path class="cls-9" d="M31.86,71a17.71,17.71,0,0,1,4.94-6.18A24.41,24.41,0,0,0,56,71.73v7.49c-1.66,0-3.24.13-4.79,0a32.63,32.63,0,0,1-16.71-6.63c-.52-.38-1-.78-1.56-1.12A6.05,6.05,0,0,0,31.86,71ZM47,76.89l1.25.27.34-1.26c.11.59.07,1.11.31,1.37s.75.23,1.14.32a1.29,1.29,0,0,0,0-.19,1,1,0,0,0,0-.17c-.09-.66-.56-1.41.42-1.82,0,0,.06-.1.08-.16.15-.65.3-1.3.47-2L49.75,73l-.35,1.17c-.29-1.47-.31-1.49-1.5-1.54l.06.34c.12.61.5,1.28-.4,1.65-.06,0-.09.13-.1.21C47.3,75.46,47.14,76.14,47,76.89Zm7.11,1.36.67-4.41-3.15-.48-.21,1.36,1.82.31-.43,3ZM38.31,73.36,39.5,74c.55-1.09,1.09-2.13,1.58-3.19a.9.9,0,0,0-.44-1.22c-.51-.3-1.06-.54-1.63-.83L38.38,70l1.3.65Zm6.4,2.83,1.28.39,1.33-4.25L46,71.93Zm-.85-.31,1.56-4.17-1.26-.46L42.6,75.42ZM42.39,73.6,43.58,71l-1.69-.77c0,.57-.87.94-.16,1.56l-.54,1.26Zm8.92,1.71-.38,2.47,1.32.2.36-2.46Z"/><path class="cls-10" d="M64.93,39.63a20.19,20.19,0,0,0-3.32-4.4.69.69,0,0,1-.15-.48q0-15.84,0-31.69a.36.36,0,0,1,0-.11,3.88,3.88,0,0,1,.27.38c1,1.73,2,3.46,2.95,5.21a1.67,1.67,0,0,1,.22.78q0,15,0,30A2.83,2.83,0,0,1,64.93,39.63Z"/><path class="cls-10" d="M61.17,47c.67,1.16,1.3,2.22,1.9,3.3a.73.73,0,0,0,.75.44c1.23,0,2.47,0,3.83,0a16.77,16.77,0,0,1-1.24,2.11,2.3,2.3,0,0,0,0,3.26,17.65,17.65,0,0,1,1.23,2.1c-1.27,0-2.44,0-3.6,0A1,1,0,0,0,63,58.8c-.55,1-1.16,2-1.8,3.14-.66-1.15-1.3-2.23-1.9-3.32a.74.74,0,0,0-.75-.43c-1.23,0-2.46,0-3.81,0,.65-1.13,1.22-2.17,1.85-3.18a.9.9,0,0,0,0-1.08c-.63-1-1.2-2.06-1.86-3.21h2.43c.62,0,1.36.2,1.82-.08s.7-1,1-1.57Z"/><path class="cls-11" d="M60.56,34.22c-1.09-.61-2.16-1.18-3.19-1.81a.9.9,0,0,1-.29-.68c0-4.39,0-8.78,0-13.18,0-3,0-6,0-9a2.26,2.26,0,0,1,.29-1.07c.92-1.68,1.88-3.34,2.82-5l.37-.59Z"/><path class="cls-12" d="M36.79,15.53,41,19.45c1.51,1.42,3,2.88,4.55,4.26a6.23,6.23,0,0,1,2.06,5.88,50.65,50.65,0,0,0-.63,6,13.25,13.25,0,0,0,2.8,8.25,2.29,2.29,0,0,1,.34,2c-.06.29-.14.58-.23,1-.18-.22-.34-.39-.48-.57a24.73,24.73,0,0,1-5.09-14.69,12,12,0,0,0-2.11-6.81c-.77-1.12-1.65-2.16-2.5-3.21-.61-.77-1.24-1.52-1.9-2.24A4.88,4.88,0,0,1,36.79,15.53Z"/><path class="cls-12" d="M84.76,15.61a5,5,0,0,1-1.25,4c-1.06,1.17-2.07,2.38-3.06,3.6A13.08,13.08,0,0,0,77.33,30c-.13,1.19-.07,2.4-.19,3.59a26,26,0,0,1-4.93,12.59c-.28-.54-.54-1-.75-1.52a.55.55,0,0,1,.07-.48c3-3.9,3.6-8.28,2.67-13a19.66,19.66,0,0,1-.31-3.15,5,5,0,0,1,1.64-3.86c3-2.84,6-5.66,9-8.49A1.16,1.16,0,0,1,84.76,15.61Z"/><path class="cls-8" d="M24.31,69.36,29,64l4,3.33c-.63,1-1.22,1.94-1.78,2.87a2.33,2.33,0,0,0,1.16,3.58,19.22,19.22,0,0,1,5.11,3.51,11.44,11.44,0,0,1,1.28,1.64.58.58,0,0,1-.15.85.81.81,0,0,1-1,.15c-.1-.06-.19-.14-.29-.21Z"/><path class="cls-8" d="M88.46,67.38l4-3.37,4.83,5.47c-.59.42-1.15.79-1.68,1.2L84.43,79.51c-.19.15-.37.38-.57.41a1.44,1.44,0,0,1-.92-.13.75.75,0,0,1-.07-.72,10.12,10.12,0,0,1,1.36-1.8,19.43,19.43,0,0,1,5-3.56,2.17,2.17,0,0,0,1.13-3.3,14.89,14.89,0,0,0-.86-1.5C89.2,68.42,88.86,68,88.46,67.38Z"/><path class="cls-12" d="M35.92,17.56a1.22,1.22,0,0,1-.17-.07A47.11,47.11,0,0,1,24.46,7.57a14.26,14.26,0,0,1-2.64-5.26c0-.15-.06-.31-.09-.47a2.88,2.88,0,0,1,0-.3c.19.16.32.26.45.38L35.56,14.37a1,1,0,0,1,.37.87C35.89,16,35.92,16.79,35.92,17.56Z"/><path class="cls-12" d="M99.93,1.52c-.2.72-.35,1.31-.54,1.9A17.78,17.78,0,0,1,95,10a50.62,50.62,0,0,1-9,7.37l-.34.19c0-.92,0-1.8,0-2.68a.64.64,0,0,1,.23-.39L99.66,1.66S99.72,1.62,99.93,1.52Z"/><path class="cls-13" d="M23.56,7.92c1.23,1.33,2.4,2.72,3.69,4a49.73,49.73,0,0,0,8.66,6.7.81.81,0,0,1,.41.8c0,1.15.18,2.3.29,3.44a5.9,5.9,0,0,0,.17.66l-.54-.29a31.39,31.39,0,0,1-10.18-9.55A18,18,0,0,1,23.49,8,.46.46,0,0,0,23.56,7.92Z"/><path class="cls-12" d="M98.05,8a13.62,13.62,0,0,1-2.32,5.32,4.21,4.21,0,0,0-.35.48,29.68,29.68,0,0,1-10.27,9.56.94.94,0,0,1-.3.06h0A18.24,18.24,0,0,0,85.24,20a1.65,1.65,0,0,1,1-1.75A46.47,46.47,0,0,0,97.86,8a.64.64,0,0,1,.13-.1Z"/><path class="cls-12" d="M41.16,40a21.74,21.74,0,0,1-5.92-3.38A24.49,24.49,0,0,1,30.62,32,8.32,8.32,0,0,1,29,27.21c.17.19.26.28.34.38a22.91,22.91,0,0,0,10,7.21c.36.14.64.28.66.72a1.38,1.38,0,0,0,.23.68A3.91,3.91,0,0,1,41,38.87,4.38,4.38,0,0,0,41.16,40Z"/><path class="cls-12" d="M80.43,39.76c.07-.69.13-1.38.19-2.07a1.7,1.7,0,0,1,.08-.46c.3-.69.59-1.38.94-2a1.06,1.06,0,0,1,.57-.37,23.2,23.2,0,0,0,9.62-6.72c.2-.24.4-.49.61-.73,0,0,0,0,.14,0a10.74,10.74,0,0,1-.13,1.14,8.25,8.25,0,0,1-1.65,3.62,25.33,25.33,0,0,1-9.64,7.51,6.45,6.45,0,0,1-.62.21Z"/><path class="cls-14" d="M49,54.27c-.6-.58-1.2-1.2-1.86-1.75-.41-.35-.62-.23-.61.31s.13,1.29.21,2.08c-1.16-.28-2.33-.5-3.46-.86a17,17,0,0,1-7-4.38A7.66,7.66,0,0,1,34.21,45l.14-.13a5.79,5.79,0,0,0,.47.61,18.4,18.4,0,0,0,10.85,5.88,2,2,0,0,1,.58.25,18.26,18.26,0,0,0,1.61.9C49.12,53,49.14,53,49,54.27Z"/><path class="cls-13" d="M36.57,51.17l.4.32a18.24,18.24,0,0,0,9.87,4.25,2,2,0,0,1,.78.41,19.08,19.08,0,0,1,1.62,1.17,2.7,2.7,0,0,1,.44.81c-.75-.39-1.41-.75-2.08-1.07A1.71,1.71,0,0,0,47,57a1.45,1.45,0,0,0,0,.51c.29.73.61,1.45,1,2.29-1-.17-1.9-.28-2.83-.51a16.48,16.48,0,0,1-6.21-3A6.75,6.75,0,0,1,36.57,51.17Z"/><path class="cls-13" d="M91.05,33.5a11.62,11.62,0,0,1-.61,2,19.69,19.69,0,0,1-11.26,10c-.2.07-.41.11-.74.19A11.64,11.64,0,0,0,80,41.27a.58.58,0,0,1,.32-.35,25.48,25.48,0,0,0,10.36-7.21l.21-.22S90.89,33.49,91.05,33.5Z"/><path class="cls-13" d="M43.08,45.59C38.23,45,30.54,37.45,30.75,33.37a1.62,1.62,0,0,0,.19.37,25.41,25.41,0,0,0,10.31,7.18.63.63,0,0,1,.35.4A11.46,11.46,0,0,0,43.08,45.59Z"/><path class="cls-14" d="M27.61,22c1.24,1.16,2.41,2.36,3.7,3.42A18.15,18.15,0,0,0,38.06,29a.64.64,0,0,1,.55.64,7.48,7.48,0,0,0,1.14,3.73,2.23,2.23,0,0,1,.15.71c-.25-.07-.41-.11-.57-.17a21.79,21.79,0,0,1-10.59-8.63A6.47,6.47,0,0,1,27.61,22Z"/><path class="cls-13" d="M81.64,34.05a2.42,2.42,0,0,1,.18-.75,7.19,7.19,0,0,0,1.1-3.57.77.77,0,0,1,.67-.8,20.61,20.61,0,0,0,10-6.65A.81.81,0,0,1,94,22a4.78,4.78,0,0,1-.21,1.15,19.08,19.08,0,0,1-1.51,2.91A21.66,21.66,0,0,1,82,34C81.94,34,81.86,34,81.64,34.05Z"/><path class="cls-14" d="M26,15a28.2,28.2,0,0,0,4.6,5.14A36,36,0,0,0,37,24.68a.79.79,0,0,1,.45.74c.05.83.19,1.65.3,2.5a.67.67,0,0,1-.22,0,19.87,19.87,0,0,1-10.43-8.38A7.3,7.3,0,0,1,26,15Z"/><path class="cls-14" d="M87.36,44.81a7.84,7.84,0,0,1-2,4.81,17.43,17.43,0,0,1-9.28,5c-.19,0-.38,0-.6.06.07-.56.16-1.08.18-1.61a2.67,2.67,0,0,0-.13-.73,2.92,2.92,0,0,0-.68.27c-.59.44-1.15.92-1.6,1.28-.21-.78.16-1.13,1-1.74a10,10,0,0,1,3.48-1.26,18.55,18.55,0,0,0,8.86-5.33Z"/><path class="cls-12" d="M95.6,15.1A6.94,6.94,0,0,1,95,18.32c-1.65,4-7.07,8.61-11.23,9.62.09-.93.17-1.89.32-2.83,0-.17.29-.34.48-.45a33.65,33.65,0,0,0,9.23-7.34C94.41,16.64,95,15.91,95.6,15.1Z"/><path class="cls-14" d="M85,51.22a6.46,6.46,0,0,1-2.18,4.91,16.59,16.59,0,0,1-8.44,3.59h-.29A5.17,5.17,0,0,0,75.16,57,4.56,4.56,0,0,0,72.77,58c0-.56,0-.53.41-.8s1-.82,1.46-1.23a1.15,1.15,0,0,1,.52-.32,18.14,18.14,0,0,0,9.44-4.21Z"/><path class="cls-14" d="M39.28,57.67c.15.08.32.15.46.24a17.4,17.4,0,0,0,9.34,2.79,4.18,4.18,0,0,1,.68.16c.4.08.81.12,1.2.22a2.41,2.41,0,0,1,.54.35c-.75,0-1.38,0-2,0s-.65.28-.27.63a13.11,13.11,0,0,0,2,1.56c.37.22.62.36.5.92a17.32,17.32,0,0,1-2-.15c-1.47-.25-3-.49-4.4-.86a9.89,9.89,0,0,1-4.65-2.94,4.77,4.77,0,0,1-1.42-2.89Z"/><path class="cls-14" d="M76.69,50.25l1.2-3.58c4.81-1.24,6.53-2.36,11.3-7.28a4.08,4.08,0,0,1-.25,1.07,18.39,18.39,0,0,1-1.83,3.21A18.13,18.13,0,0,1,78.05,50c-.4.11-.81.2-1.22.3Z"/><path class="cls-14" d="M32.46,39.29c3,3.67,6.53,6.48,11.2,7.39l1.22,3.65c-.83-.25-1.72-.45-2.56-.79a18,18,0,0,1-9.1-7.71A10.39,10.39,0,0,1,32.47,40a2.28,2.28,0,0,1,0-.74Z"/><path class="cls-9" d="M82.37,57.57a5.92,5.92,0,0,1-1.8,3.36A12.46,12.46,0,0,1,73,64.27c-1.06.14-2.13.21-3.2.32l-.09-.25a1.89,1.89,0,0,1,.47-.27,4.64,4.64,0,0,0,2.94-1.8c.36-.45.3-.63-.27-.67s-1.45,0-2.12,0c.14-.19.25-.64.8-.44h.06c1.48-.71,3.13-.46,4.67-.87A20.2,20.2,0,0,0,81.69,58Z"/><path class="cls-14" d="M69.42,68.62c.07-1,.14-1.84.21-2.73,0-.44.34-.48.68-.49a22.34,22.34,0,0,0,6.07-1c.9-.29,1.77-.69,2.72-1.07A3.12,3.12,0,0,1,77.79,66a15.06,15.06,0,0,1-3,1.59A18.51,18.51,0,0,1,69.42,68.62Z"/><path class="cls-14" d="M51.87,65.44l.27,3.26c-1.28-.21-2.5-.36-3.7-.6a10.27,10.27,0,0,1-4.62-2,3.62,3.62,0,0,1-1.38-2.87C45.4,64.9,48.58,65.28,51.87,65.44Z"/><path class="cls-10" d="M68.48,69.35c.09,1.16-.25,1.55-1.36,1.55H54.43c-1.1,0-1.44-.39-1.35-1.55Z"/><path class="cls-11" d="M65.78,35.6A8,8,0,0,1,66,33.81c1.41-3.75,2.87-7.48,4.31-11.22a2.28,2.28,0,0,1,.13-.28C71.65,25.68,69.36,32.47,65.78,35.6Z"/><path class="cls-15" d="M42.75,42.24a7.17,7.17,0,0,0,3.86,1.54c.11,0,.22.15.3.26,1,1.34,2,2.69,3,4.05a6.19,6.19,0,0,1,.5,1l-.48,1c-.27-.68-.51-1.35-.8-2-.09-.22-.31-.51-.49-.53s-.42.24-.57.43A6.87,6.87,0,0,1,42.75,42.24Z"/><path class="cls-16" d="M54.84,32.52a1.6,1.6,0,0,1,.44,0,14.41,14.41,0,0,1,9.15,8.35,1.87,1.87,0,0,1,.13.4,1,1,0,0,1,0,.23,2.53,2.53,0,0,1-.34-.21L55,32.74a1.19,1.19,0,0,1-.16-.23Z"/><path class="cls-11" d="M78.81,42.22A6.89,6.89,0,0,1,74,47.84c-.5-.48-.59-.49-.92.14s-.53,1.23-.8,1.88c-.11-.41-.59-.69-.28-1.25.22-.41.2-1,.44-1.33.66-1.07,1.39-2.09,2.13-3.1a1,1,0,0,1,.62-.41A7.3,7.3,0,0,0,78.81,42.22Z"/><path class="cls-16" d="M63.54,42.17a11.69,11.69,0,0,1-6.31-3.74,14.5,14.5,0,0,1-3.07-5l.13-.1,6.44,6c1,.91,1.94,1.85,2.9,2.77Z"/><path class="cls-13" d="M53.08,68.57c0-.74.37-1.08,1.08-1.08,1.32,0,2.64,0,4,0h9.16c.82,0,1.15.3,1.22,1.09Z"/><path class="cls-10" d="M56.15,80.83c.92,1,1.51.93,2.36-.11a.65.65,0,0,1,.46-.17h5.74a.88.88,0,1,1,0,1.74c-2.63,0-5.26,0-7.89,0A1.21,1.21,0,0,1,56,81.8c-.15-.24,0-.64,0-1Z"/><path class="cls-15" d="M42.47,27.09c-2.92.05-5.55-3.43-5.32-7C38.23,20.68,42,25.67,42.47,27.09Z"/><path class="cls-15" d="M79,27.11c1.24-2.81,3.41-4.84,5.29-7.14C85.14,22.86,82.13,26.93,79,27.11Z"/><path class="cls-16" d="M69.59,22q-1.8,4.69-3.62,9.38h-.13V30.05a20.34,20.34,0,0,0,0-2.21,3.5,3.5,0,0,1,.89-2.74l2.71-3.24Z"/><path class="cls-15" d="M83.14,26.07a5.16,5.16,0,0,1-5,4.49c.15-.72.29-1.44.46-2.14a.55.55,0,0,1,.36-.32A7.79,7.79,0,0,0,83.14,26.07Z"/><path class="cls-15" d="M43.45,30.58c-2.44.07-5.05-2.28-5-4.37a21.5,21.5,0,0,0,2,1.22,6.79,6.79,0,0,0,1.87.59c.5.08.73.27.8.76S43.33,30,43.45,30.58Z"/><path class="cls-15" d="M39.63,30.11c.91.42,1.81.86,2.73,1.24a4.53,4.53,0,0,0,1,.19l.15,2.64c-1.89.42-3.84-1.56-4-4C39.6,30.14,39.61,30.12,39.63,30.11Z"/><path class="cls-15" d="M78,34.19l.15-2.66A6.82,6.82,0,0,0,82,30C82,32.47,80,34.5,78,34.19Z"/><path class="cls-15" d="M41.81,38.44c.92.3,1.87.61,2.82.94a.63.63,0,0,1,.29.33c.43,1,.84,2,1.25,3C44.13,43,41.71,40.5,41.81,38.44Z"/><path class="cls-15" d="M75.36,42.78c.44-1.07.87-2.13,1.31-3.18a.42.42,0,0,1,.25-.22l2.81-.94C79.92,40.39,77.71,42.67,75.36,42.78Z"/><path class="cls-16" d="M64.64,78.27v1.54h-6c.36-.51.66-1,1-1.39a.43.43,0,0,1,.3-.14Z"/><path class="cls-17" d="M76.62,68a8.7,8.7,0,0,1-7.39,2.62l.11-1.1a24.26,24.26,0,0,0,2.42-.32c1.5-.36,3-.8,4.49-1.2a1.61,1.61,0,0,1,.38,0Z"/><path class="cls-16" d="M56.12,22.87a12.94,12.94,0,0,1-3.83-6.94l1.68,2,1.32,1.56C56.27,20.64,56.4,21.16,56.12,22.87Z"/><path class="cls-18" d="M45,68a.85.85,0,0,1,.22,0,20.6,20.6,0,0,0,6.52,1.47c.13,0,.27,0,.45.07,0,.19.05.38.07.58s0,.35.05.62c-2.48,0-4.87-.21-6.77-2A4.63,4.63,0,0,1,45,68Z"/><path class="cls-15" d="M77.08,38.46l.74-3.13,3-.88A4.29,4.29,0,0,1,77.08,38.46Z"/><path class="cls-15" d="M44.46,38.44a4.33,4.33,0,0,1-3.72-4l3,.87Z"/><path class="cls-11" d="M57,73.15V71.64h5.43c-.35.49-.66,1-1,1.4a.31.31,0,0,1-.25.11Z"/><path class="cls-19" d="M82.13,78.61l-.81-1.49c1.35-.78,2.7-1.49,4-2.31S87.74,73.1,89,72.23c.32-.24.6-.43,1,.13A7.44,7.44,0,0,1,89,73a22.18,22.18,0,0,0-5,3.53C83.31,77.18,82.76,77.9,82.13,78.61Z"/><path class="cls-20" d="M40.12,77.23l-.69,1.26A19.15,19.15,0,0,0,32.51,73a1.33,1.33,0,0,1-.5-.31,2.37,2.37,0,0,1-.25-.63,1.85,1.85,0,0,1,.68.07c.41.24.76.57,1.16.83C35.75,74.4,37.9,75.8,40.12,77.23Z"/><path class="cls-19" d="M60.2,77.52c.33-.47.6-.88.9-1.27a.51.51,0,0,1,.34-.19h3.2v1.47Z"/><path class="cls-18" d="M44.9,47.58,47.73,49l.11,2.42A4.89,4.89,0,0,1,44.9,47.58Z"/><path class="cls-20" d="M52.87,67l-.1-1.47c.38.16.69.3,1,.41a4.44,4.44,0,0,0,3.11,0c1.19-.42,1.46-.32,2.14.81a3.75,3.75,0,0,1-.45,0c-1.3,0-2.6,0-3.9,0C54.09,66.8,53.52,66.93,52.87,67Z"/><path class="cls-21" d="M63.55,71.67c-.12.18-.23.36-.35.53-1.68,2.4-3.37,4.8-5,7.21a1.4,1.4,0,0,0-.18.74c0,.4-.15.67-.54.74a.54.54,0,0,1-.71-.52c0-.25.3-.52.51-.74s.48-.25.62-.45c1.7-2.39,3.37-4.79,5.06-7.19a2.63,2.63,0,0,1,.48-.46Z"/><path class="cls-15" d="M60.82,73.91c-.32.47-.58.87-.87,1.24a.58.58,0,0,1-.39.21c-.85,0-1.71,0-2.61,0V73.91Z"/><path class="cls-20" d="M60.1,41.86l-3,.85v-3Z"/><path class="cls-17" d="M74.34,51.17V48.74l2.36-1.19A5.47,5.47,0,0,1,74.34,51.17Z"/><path class="cls-21" d="M63.13,66.78c.53-1.11,1-1.28,2-.83a4.76,4.76,0,0,0,3.58.11l-.07,1a16.93,16.93,0,0,0-1.78-.22C65.66,66.75,64.42,66.78,63.13,66.78Z"/><path class="cls-18" d="M53.1,15.31c.95.54,1.9,1.07,2.84,1.64a.61.61,0,0,1,.25.42,6.76,6.76,0,0,1-.12,1.71l-3-3.69Z"/><path class="cls-15" d="M61.81,75.34c.76-1.49,1-1.63,2.82-1.42v1.42Z"/><path class="cls-19" d="M60.71,42.5a4.91,4.91,0,0,1-4.19,1.59A4.88,4.88,0,0,1,60.71,42.5Z"/><path class="cls-19" d="M65.59,44a4.32,4.32,0,0,1-4.06-1.53A4.83,4.83,0,0,1,65.59,44Z"/><path class="cls-20" d="M71.61,48a3.61,3.61,0,0,1-1.13-3.62A3.6,3.6,0,0,1,71.61,48Z"/><path class="cls-20" d="M72.61,62.1A4.15,4.15,0,0,1,69,63.65C69.43,62.65,71.12,61.9,72.61,62.1Z"/><path class="cls-20" d="M59.23,76.09c-.73,1.46-1,1.61-2.3,1.42V76.09Z"/><path class="cls-19" d="M67.44,47.37A3.6,3.6,0,0,1,71,48.57,3.57,3.57,0,0,1,67.44,47.37Z"/><path class="cls-19" d="M72.57,56.6a4.13,4.13,0,0,1-1.86-3.45C71.73,53.49,72.57,55,72.57,56.6Z"/><path class="cls-19" d="M57.09,65.31a4.1,4.1,0,0,1-3.86-.13A3.49,3.49,0,0,1,57.09,65.31Z"/><path class="cls-19" d="M54.71,47.38a3.6,3.6,0,0,1-3.61,1.18A3.64,3.64,0,0,1,54.71,47.38Z"/><path class="cls-19" d="M69.23,59.36a3.62,3.62,0,0,1-.82,3.71A3.62,3.62,0,0,1,69.23,59.36Z"/><path class="cls-19" d="M64.92,64.78a3.59,3.59,0,0,1,2.14-3.25A4.1,4.1,0,0,1,64.92,64.78Z"/><path class="cls-19" d="M48.65,48.3a4,4,0,0,1,.26,3.88A3.66,3.66,0,0,1,48.65,48.3Z"/><path class="cls-19" d="M57.84,46A4.17,4.17,0,0,1,54,45.62,3.63,3.63,0,0,1,57.84,46Z"/><path class="cls-22" d="M49.8,61.9a4.13,4.13,0,0,1,3.61,1.51A3.67,3.67,0,0,1,49.8,61.9Z"/><path class="cls-19" d="M65.94,41.94a3.84,3.84,0,0,1,2.52,2.86A3.48,3.48,0,0,1,65.94,41.94Z"/><path class="cls-22" d="M56.25,41.93a4.06,4.06,0,0,1-2.53,3A3.65,3.65,0,0,1,56.25,41.93Z"/><path class="cls-22" d="M49.5,52.55A4.15,4.15,0,0,1,52.64,50,4.21,4.21,0,0,1,49.5,52.55Z"/><path class="cls-19" d="M75.06,53.14a3.59,3.59,0,0,1-1.74,3.36A3.61,3.61,0,0,1,75.06,53.14Z"/><path class="cls-22" d="M73.23,52.19a4,4,0,0,1,.25-3.89A3.68,3.68,0,0,1,73.23,52.19Z"/><path class="cls-22" d="M65.24,65.39a4.07,4.07,0,0,1,3.9-.15A3.68,3.68,0,0,1,65.24,65.39Z"/><path class="cls-22" d="M51.83,56.46A4.13,4.13,0,0,1,51,60.29,3.69,3.69,0,0,1,51.83,56.46Z"/><path class="cls-22" d="M55.3,61.36a3.67,3.67,0,0,1,2.15,3.26A4.13,4.13,0,0,1,55.3,61.36Z"/><path class="cls-22" d="M62.69,66.4a4.14,4.14,0,0,1,.84-4A4.14,4.14,0,0,1,62.69,66.4Z"/><path class="cls-19" d="M72.65,52.54A4.15,4.15,0,0,1,69.5,50,4.2,4.2,0,0,1,72.65,52.54Z"/><path class="cls-22" d="M54,63a4.1,4.1,0,0,1-.88-3.81A3.68,3.68,0,0,1,54,63Z"/><path class="cls-22" d="M64.31,46a3.63,3.63,0,0,1,3.88-.38A4.07,4.07,0,0,1,64.31,46Z"/><path class="cls-19" d="M47.58,57.57a4.12,4.12,0,0,1,2.68,2.84C49.17,60.34,48,59.11,47.58,57.57Z"/><path class="cls-19" d="M70.36,56.45a4.1,4.1,0,0,1,.85,3.82A3.7,3.7,0,0,1,70.36,56.45Z"/><path class="cls-22" d="M59.45,66.38a4.19,4.19,0,0,1-.86-3.94A4.11,4.11,0,0,1,59.45,66.38Z"/><path class="cls-17" d="M47,53a4.18,4.18,0,0,1,1.85,3.57A4.13,4.13,0,0,1,47,53Z"/><path class="cls-17" d="M49.56,56.54a4.09,4.09,0,0,1,1.74-3.43C51.63,54.15,50.81,55.8,49.56,56.54Z"/><path class="cls-22" d="M50.5,48.12a4.18,4.18,0,0,1,1.18-3.86A4.15,4.15,0,0,1,50.5,48.12Z"/><path class="cls-17" d="M71.86,60.5a4.07,4.07,0,0,1,2.62-2.89A3.67,3.67,0,0,1,71.86,60.5Z"/><path class="cls-20" d="M60.84,66.85c-.16-.27-.43-.52-.47-.81s.27-.61.66-.6.68.26.62.64-.33.52-.51.78Z"/><path class="cls-20" d="M64.65,71.54v1.57H63.27C63.77,72.59,63.91,71.87,64.65,71.54Z"/><path class="cls-21" d="M54.38,64.17l-1.68.56L52.64,64C53.23,64.11,53.81,63.68,54.38,64.17Z"/><path class="cls-21" d="M67.73,64.34c.29-.51.67-.31,1-.22.09,0,.12.25.2.45Z"/><path class="cls-20" d="M57.8,78.31l-.72.8L56.94,79v-.72Z"/><path class="cls-14" d="M32.46,39.27l-.06.08,0,0,.1,0Z"/><path class="cls-16" d="M54.16,33.41v-.2l.12.1Z"/><path class="cls-16" d="M54.85,32.51l-.08,0,.07,0v.09Z"/><path class="cls-12" d="M84.81,23.39v.08h0l.07-.06Z"/><path class="cls-18" d="M53,15.39,53,15.27l.14,0Z"/><path class="cls-12" d="M98,7.91l.09-.08,0,.14Z"/><path class="cls-18" d="M45,68,45,67.93H45V68Z"/><path class="cls-17" d="M76.63,68,76.54,68l0,0,.05.09Z"/><path class="cls-13" d="M23.49,8l0-.16.09.09A.46.46,0,0,1,23.49,8Z"/><path class="cls-23" d="M44.34,68.74l.08,0,0,0-.08,0Z"/><path class="cls-23" d="M77.33,68.8h-.19l.08-.13Z"/><path class="cls-23" d="M52.18,46.46v0l-.07,0s0,0,0,0Z"/><path class="cls-14" d="M39.24,57.71a.18.18,0,0,1-.05-.07l0,0,.06.06Z"/><path class="cls-16" d="M63.63,42.07l.1.1h-.19Z"/><path class="cls-12" d="M80.54,39.86l-.09.06c0-.05,0-.11,0-.16Z"/><path class="cls-15" d="M39.59,30.15l0-.11.06.07S39.6,30.14,39.59,30.15Z"/><path class="cls-24" d="M80.78,74.88l-1.24.49-1.11-2.82-.49.15L79,75.55l-1.23.5-1.63-4.16,3-1.17Z"/><path class="cls-24" d="M70.28,72.8l1.25-.28.23.51,1.61-.33c.23,1.18.5,2.33.67,3.5a1,1,0,0,1-.76,1.09,14.83,14.83,0,0,1-1.49.35l-.31-1.34L72.7,76l-.36-1.61-1.62.33Z"/><path class="cls-1" d="M76.42,74.79l-1.27.38-.42-1.3c-.89-.06-.54-.85-.92-1.28l1.79-.53Z"/><path class="cls-24" d="M47,76.89c.17-.75.33-1.43.49-2.1,0-.08,0-.19.1-.21.9-.37.52-1,.4-1.65l-.06-.34c1.19,0,1.21.07,1.5,1.54L49.75,73l1.24.27c-.17.72-.32,1.37-.47,2,0,.06,0,.14-.08.16-1,.41-.51,1.16-.42,1.82a1,1,0,0,1,0,.17,1.29,1.29,0,0,1,0,.19c-.39-.09-.92-.07-1.14-.32s-.2-.78-.31-1.37l-.34,1.26Z"/><path class="cls-24" d="M54.08,78.25l-1.3-.19.43-3-1.82-.31.21-1.36,3.15.48Z"/><path class="cls-24" d="M38.31,73.36l1.37-2.76L38.38,70,39,68.71c.57.29,1.12.53,1.63.83a.9.9,0,0,1,.44,1.22c-.49,1.06-1,2.1-1.58,3.19Z"/><path class="cls-24" d="M44.71,76.19,46,71.93l1.28.4L46,76.58Z"/><path class="cls-1" d="M43.86,75.88l-1.26-.46,1.56-4.17,1.26.46Z"/><path class="cls-1" d="M42.39,73.6l-1.2-.54c.19-.44.37-.85.54-1.26-.71-.62.18-1,.16-1.56l1.69.77Z"/><path class="cls-1" d="M51.31,75.31l1.3.21L52.25,78l-1.32-.2Z"/></g></g></svg>