<svg width="393" height="852" viewBox="0 0 393 852" fill="none" xmlns="http://www.w3.org/2000/svg" xmlns:xlink="http://www.w3.org/1999/xlink">
<g clip-path="url(#clip0_6_4)">
<rect width="393" height="852" fill="url(#paint0_linear_6_4)"/>
<path fill-rule="evenodd" clip-rule="evenodd" d="M157.713 433.557L-34.1969 885.593L-80.1333 771.924L77.9099 399.691L91.4453 367.796L59.5503 354.261L-312.775 196.255L-358.711 82.5861L93.3791 274.365L165.241 304.861L205.114 321.86L188.209 361.696L157.713 433.557Z" fill="url(#paint1_linear_6_4)"/>
<g filter="url(#filter0_i_6_4)">
<path fill-rule="evenodd" clip-rule="evenodd" d="M-133.254 897.729L-507.128 0.139123L-534.811 -66.3083L163.031 221.074L-124.389 919.008L-133.254 897.729Z" fill="url(#paint2_linear_6_4)"/>
<path fill-rule="evenodd" clip-rule="evenodd" d="M-133.254 897.729L-507.128 0.139123L-534.811 -66.3083L163.031 221.074L-124.389 919.008L-133.254 897.729Z" fill="url(#pattern0_6_4)" fill-opacity="0.2"/>
</g>
<path fill-rule="evenodd" clip-rule="evenodd" d="M1048.8 1825.42L1058.34 1815.64L16.2289 1646.18L30.1951 1659.8L1048.8 1825.42ZM1521.64 133.892L503.081 -31.7782L493.546 -22.0025L1535.6 147.515L1521.64 133.892ZM1564.9 176.087L1578.86 189.71L463.947 8.34271L473.482 -1.43305L1564.9 176.087ZM1608.08 218.213L1622.05 231.835L434.348 38.6879L443.883 28.9123L1608.08 218.213ZM1651.34 260.408L1665.31 274.03L404.799 68.9823L414.334 59.2066L1651.34 260.408ZM1694.6 302.603L1708.57 316.225L375.201 99.3275L384.736 89.5518L1694.6 302.603ZM1737.86 344.798L1751.83 358.42L345.651 129.622L355.187 119.846L1737.86 344.798ZM1781.05 386.923L1795.02 400.546L316.053 159.967L325.588 150.191L1781.05 386.923ZM1824.31 429.118L1838.28 442.741L286.454 190.312L295.989 180.537L1824.31 429.118ZM1867.57 471.313L1881.53 484.936L256.856 220.657L266.391 210.882L1867.57 471.313ZM1910.83 513.508L1924.79 527.131L227.306 250.952L236.842 241.176L1910.83 513.508ZM1954.02 555.633L1967.98 569.256L197.708 281.297L207.243 271.521L1954.02 555.633ZM1997.27 597.828L2011.24 611.451L168.109 311.642L177.644 301.866L1997.27 597.828ZM2040.53 640.024L2054.5 653.646L138.56 341.936L148.095 332.161L2040.53 640.024ZM2083.79 682.219L2097.69 695.771L108.961 372.282L118.497 362.506L2083.79 682.219ZM2113.86 733.5L79.3628 402.627L88.8979 392.851L2123.39 723.724L2113.86 733.5ZM2084.26 763.845L49.7641 432.972L59.2992 423.196L2093.79 754.07L2084.26 763.845ZM2054.66 794.19L20.2151 463.266L29.7502 453.491L2064.19 784.415L2054.66 794.19ZM2025.11 824.485L-9.38357 493.612L0.151516 483.836L2034.65 814.709L2025.11 824.485ZM1995.51 854.83L-38.9823 523.957L-29.4471 514.181L2005.05 845.054L1995.51 854.83ZM1965.91 885.175L-68.581 554.302L-59.0458 544.526L1975.45 875.4L1965.91 885.175ZM1936.31 915.52L-98.13 584.596L-88.5949 574.821L1945.85 905.745L1936.31 915.52ZM1906.77 945.815L-127.729 614.942L-118.193 605.166L1916.3 936.039L1906.77 945.815ZM1877.17 976.16L-157.327 645.287L-147.792 635.511L1886.7 966.384L1877.17 976.16ZM1847.57 1006.51L-186.876 675.581L-177.341 665.805L1857.1 996.73L1847.57 1006.51ZM1818.02 1036.8L-216.475 705.926L-206.94 696.151L1827.55 1027.02L1818.02 1036.8ZM1788.42 1067.14L-246.074 736.271L-236.539 726.496L1797.96 1057.37L1788.42 1067.14ZM1758.82 1097.49L-275.672 766.617L-266.137 756.841L1768.36 1087.71L1758.82 1097.49ZM1729.22 1127.84L-305.221 796.911L-295.686 787.135L1738.76 1118.06L1729.22 1127.84ZM1699.67 1158.13L-334.82 827.256L-325.285 817.481L1709.21 1148.35L1699.67 1158.13ZM1670.08 1188.47L-364.419 857.601L-354.884 847.826L1679.61 1178.7L1670.08 1188.47ZM1640.48 1218.82L-394.017 887.947L-384.482 878.171L1650.01 1209.04L1640.48 1218.82ZM1610.88 1249.17L-423.566 918.241L-414.031 908.465L1620.41 1239.39L1610.88 1249.17ZM1581.33 1279.46L-453.165 948.586L-443.63 938.811L1590.86 1269.68L1581.33 1279.46ZM1551.73 1309.8L-482.764 978.931L-473.229 969.156L1561.27 1300.03L1551.73 1309.8ZM1522.13 1340.15L-512.313 1009.23L-502.778 999.45L1531.67 1330.37L1522.13 1340.15ZM1492.58 1370.44L-541.911 1039.57L-532.376 1029.8L1502.12 1360.67L1492.58 1370.44ZM1462.98 1400.79L-571.51 1069.92L-561.975 1060.14L1472.52 1391.01L1462.98 1400.79ZM1433.39 1431.13L-531.961 1111.47L-545.927 1097.85L1442.92 1421.36L1433.39 1431.13ZM1403.79 1461.48L-488.702 1153.67L-502.668 1140.05L1413.32 1451.7L1403.79 1461.48ZM1374.24 1491.77L-445.442 1195.86L-459.409 1182.24L1383.77 1482L1374.24 1491.77ZM1344.64 1522.12L-402.183 1238.06L-416.149 1224.44L1354.17 1512.34L1344.64 1522.12ZM1315.04 1552.46L-358.995 1280.18L-372.962 1266.56L1324.58 1542.69L1315.04 1552.46ZM1285.44 1582.81L-315.736 1322.38L-329.702 1308.76L1294.98 1573.03L1285.44 1582.81ZM1255.89 1613.1L-272.477 1364.57L-286.443 1350.95L1265.43 1603.33L1255.89 1613.1ZM1226.29 1643.45L-229.218 1406.77L-243.184 1393.15L1235.83 1633.67L1226.29 1643.45ZM1196.7 1673.79L-186.03 1448.89L-199.996 1435.27L1206.23 1664.02L1196.7 1673.79ZM1167.15 1704.09L-142.771 1491.09L-156.737 1477.47L1176.68 1694.31L1167.15 1704.09ZM1137.55 1734.43L-99.5112 1533.28L-113.477 1519.66L1147.08 1724.66L1137.55 1734.43ZM1107.95 1764.78L-56.2519 1575.48L-70.2181 1561.86L1117.48 1755L1107.95 1764.78ZM1078.35 1795.12L-13.0642 1617.6L-27.0304 1603.98L1087.89 1785.35L1078.35 1795.12Z" fill="url(#paint3_linear_6_4)" fill-opacity="0.3"/>
<g filter="url(#filter1_d_6_4)">
<path fill-rule="evenodd" clip-rule="evenodd" d="M153.254 322.686L-41.0025 773.718L-86.3473 659.811L73.6289 288.405L87.33 256.581L55.5058 242.88L-315.993 82.9409L-361.338 -30.9652L89.7495 163.162L161.451 194.031L201.236 211.236L184.124 250.984L153.254 322.686Z" fill="url(#paint4_linear_6_4)"/>
</g>
</g>
<defs>
<filter id="filter0_i_6_4" x="-534.811" y="-66.3083" width="697.842" height="989.317" filterUnits="userSpaceOnUse" color-interpolation-filters="sRGB">
<feFlood flood-opacity="0" result="BackgroundImageFix"/>
<feBlend mode="normal" in="SourceGraphic" in2="BackgroundImageFix" result="shape"/>
<feColorMatrix in="SourceAlpha" type="matrix" values="0 0 0 0 0 0 0 0 0 0 0 0 0 0 0 0 0 0 127 0" result="hardAlpha"/>
<feOffset dy="4"/>
<feGaussianBlur stdDeviation="11"/>
<feComposite in2="hardAlpha" operator="arithmetic" k2="-1" k3="1"/>
<feColorMatrix type="matrix" values="0 0 0 0 0 0 0 0 0 0 0 0 0 0 0 0 0 0 0.3 0"/>
<feBlend mode="normal" in2="shape" result="effect1_innerShadow_6_4"/>
</filter>
<filter id="filter1_d_6_4" x="-384.438" y="-50.0652" width="608.774" height="850.883" filterUnits="userSpaceOnUse" color-interpolation-filters="sRGB">
<feFlood flood-opacity="0" result="BackgroundImageFix"/>
<feColorMatrix in="SourceAlpha" type="matrix" values="0 0 0 0 0 0 0 0 0 0 0 0 0 0 0 0 0 0 127 0" result="hardAlpha"/>
<feOffset dy="4"/>
<feGaussianBlur stdDeviation="11.55"/>
<feComposite in2="hardAlpha" operator="out"/>
<feColorMatrix type="matrix" values="0 0 0 0 0 0 0 0 0 0 0 0 0 0 0 0 0 0 0.5 0"/>
<feBlend mode="normal" in2="BackgroundImageFix" result="effect1_dropShadow_6_4"/>
<feBlend mode="normal" in="SourceGraphic" in2="effect1_dropShadow_6_4" result="shape"/>
</filter>
<linearGradient id="paint0_linear_6_4" x1="268" y1="231.5" x2="468.5" y2="-147" gradientUnits="userSpaceOnUse">
<stop stop-color="#274C77"/>
<stop offset="1" stop-color="#0A3588"/>
</linearGradient>
<linearGradient id="paint1_linear_6_4" x1="-138.672" y1="944.971" x2="208.935" y2="216.049" gradientUnits="userSpaceOnUse">
<stop stop-color="#274C77"/>
<stop offset="0.771274" stop-color="#0A3588"/>
</linearGradient>
<linearGradient id="paint2_linear_6_4" x1="-774.42" y1="-105.052" x2="266.25" y2="780.082" gradientUnits="userSpaceOnUse">
<stop stop-color="#006399"/>
<stop offset="1" stop-color="#0A3588"/>
</linearGradient>
<linearGradient id="paint3_linear_6_4" x1="450.5" y1="749" x2="220.673" y2="318.842" gradientUnits="userSpaceOnUse">
<stop stop-color="#6096BA"/>
<stop offset="1" stop-color="#274C77"/>
</linearGradient>
<linearGradient id="paint4_linear_6_4" x1="-34" y1="10.5" x2="-182" y2="718" gradientUnits="userSpaceOnUse">
<stop offset="0.538889" stop-color="#6096BA"/>
<stop offset="0.866364" stop-color="#A3CEF1"/>
</linearGradient>
<clipPath id="clip0_6_4">
<rect width="393" height="852" fill="white"/>
</clipPath>
<pattern id="pattern0_6_4" patternUnits="userSpaceOnUse" patternTransform="matrix(-7.54544 18.3224 -18.3224 -7.54544 -321.947 423.162)" preserveAspectRatio="none" viewBox="0 0 29.575 29.575" width="1" height="1">
<g id="pattern0_6_4_inner">
<path opacity="0.2" fill-rule="evenodd" clip-rule="evenodd" d="M14.95 14.95C11.55 18.35 6.05 18.35 2.55 14.95C-0.85 11.55 -0.85 6.05 2.55 2.55C5.95 -0.85 11.45 -0.85 14.95 2.55C18.35 5.95 18.35 11.55 14.95 14.95Z" fill="white"/>
</g>
</pattern></defs>
</svg>
